<svg width="1181" height="435" viewBox="0 0 1181 435" fill="none" xmlns="http://www.w3.org/2000/svg">
<path d="M1180 217.5C1180 247.058 1160.55 275.406 1124.93 301.353C1089.33 327.283 1037.75 350.677 973.923 370.34C846.281 409.663 669.885 434 475 434C280.115 434 103.719 409.663 -23.923 370.34C-87.7499 350.677 -139.329 327.283 -174.93 301.353C-210.553 275.406 -230 247.058 -230 217.5C-230 187.942 -210.553 159.594 -174.93 133.648C-139.329 107.717 -87.7499 84.3233 -23.923 64.66C103.719 25.3369 280.115 1 475 1C669.885 1 846.281 25.3369 973.923 64.66C1037.75 84.3233 1089.33 107.717 1124.93 133.648C1160.55 159.594 1180 187.942 1180 217.5Z" stroke="black" stroke-width="2"/>
</svg>
